<svg id="Capa_1" data-name="Capa 1" xmlns="http://www.w3.org/2000/svg" viewBox="0 0 249.65 279.87"><defs><style>.cls-1{fill:none;stroke-width:10px;}.cls-1,.cls-2,.cls-3{stroke:#fff;stroke-miterlimit:10;}.cls-2,.cls-3{fill:#fff;}.cls-2{stroke-width:0.5px;}</style></defs><title>Logo_omar_blanco</title><path class="cls-1" d="M382.59,368.39" transform="translate(-243.49 -146.63)"/><path class="cls-1" d="M354.15,209.89" transform="translate(-243.49 -146.63)"/><line class="cls-1" x1="124.98" y1="255.99" x2="124.98" y2="28.99"/><line class="cls-1" x1="224.09" y1="31.91" x2="25.72" y2="31.91"/><line class="cls-2" x1="124.98" y1="5.59" x2="124.98" y2="274.28"/><circle class="cls-3" cx="124.98" cy="5.59" r="5.09"/><circle class="cls-3" cx="124.98" cy="274.28" r="5.09"/><path class="cls-1" d="M368.48,369.62a80.5,80.5,0,0,1-80.5-80.5" transform="translate(-243.49 -146.63)"/><path class="cls-1" d="M368.48,208.62a80.51,80.51,0,0,1,28.14,155.94" transform="translate(-243.49 -146.63)"/><path class="cls-1" d="M288,289.12a80.52,80.52,0,0,1,52-75.31" transform="translate(-243.49 -146.63)"/><line class="cls-2" x1="242.69" y1="204.19" x2="205.48" y2="142.49"/><line class="cls-2" x1="6.96" y1="68.61" x2="242.69" y2="204.19"/><line class="cls-2" x1="44.48" y1="142.49" x2="6.96" y2="68.61"/><line class="cls-2" x1="205.48" y1="57" x2="38.14" y2="221.74"/><circle class="cls-3" cx="6.96" cy="68.61" r="6.46"/><circle class="cls-3" cx="242.69" cy="204.19" r="6.46"/><circle class="cls-3" cx="205.48" cy="57" r="3.86"/><circle class="cls-3" cx="38.12" cy="221.76" r="3.86"/></svg>